<svg width="24.000244" height="15.000000" viewBox="0 0 24.0002 15" fill="none" xmlns="http://www.w3.org/2000/svg" xmlns:xlink="http://www.w3.org/1999/xlink">
	<desc>
			Created with Pixso.
	</desc>
	<defs/>
	<path id="Vector" d="M22 2L15 2L15 0L22 0L22 2ZM23.7261 12C23.2839 13.2971 21.697 15 18.625 15C15.551 15 13.061 13.271 13.061 9.32495C13.061 5.41504 15.386 3.40503 18.5271 3.40503C21.6089 3.40503 23.491 5.18701 23.9021 7.83105C23.98 8.33691 24.011 9.01904 23.9971 9.97095L15.97 9.97095C16.1001 13.1819 19.4529 13.283 20.5581 12L23.7261 12ZM16.04 8L21.0049 8C20.8999 6.45288 19.8689 5.78101 18.5281 5.78101C17.062 5.78101 16.251 6.54907 16.04 8ZM6.46606 14.988L0 14.988L0 0.0209961L6.95288 0.0209961C12.429 0.102051 12.533 5.46509 9.6731 6.927C13.134 8.18701 13.25 14.988 6.46606 14.988ZM3 6L6.58398 6C9.09204 6 9.48999 3 6.27197 3L3 3L3 6ZM6.39111 9L3 9L3 12.0161L6.34106 12.0161C9.396 12.0161 9.20898 9 6.39111 9Z" fill="#000000" fill-opacity="1.000000" fill-rule="nonzero"/>
</svg>
