<svg width="24.000000" height="24.000000" viewBox="0 0 24 24" fill="none" xmlns="http://www.w3.org/2000/svg" xmlns:xlink="http://www.w3.org/1999/xlink">
	<desc>
			Created with Pixso.
	</desc>
	<defs>
		<clipPath id="clip26_2">
			<rect id="iconmonstr-instagram-11 (1)" width="24.000000" height="24.000000" fill="white" fill-opacity="0"/>
		</clipPath>
	</defs>
	<rect id="iconmonstr-instagram-11 (1)" width="24.000000" height="24.000000" fill="#FFFFFF" fill-opacity="0"/>
	<g clip-path="url(#clip26_2)">
		<path id="Vector" d="M12 2.16309C15.2041 2.16309 15.584 2.17505 16.8501 2.23291C20.1021 2.3811 21.6211 3.92407 21.769 7.1521C21.8269 8.41699 21.8379 8.79712 21.8379 12.001C21.8379 15.2061 21.8259 15.585 21.769 16.8501C21.6201 20.075 20.105 21.6211 16.8501 21.769C15.584 21.8269 15.2061 21.8391 12 21.8391C8.7959 21.8391 8.41602 21.8269 7.15088 21.769C3.89111 21.6201 2.37988 20.0701 2.23193 16.8491C2.17407 15.584 2.16211 15.2051 2.16211 12C2.16211 8.7959 2.17505 8.41699 2.23193 7.15088C2.3811 3.92407 3.896 2.37988 7.15088 2.23193C8.41699 2.17505 8.7959 2.16309 12 2.16309ZM12 0C8.74097 0 8.33301 0.013916 7.05298 0.0720215C2.69507 0.271973 0.272949 2.68994 0.072998 7.052C0.013916 8.33301 0 8.74097 0 12C0 15.259 0.013916 15.668 0.0720215 16.948C0.271973 21.3059 2.68994 23.728 7.052 23.928C8.33301 23.9861 8.74097 24 12 24C15.259 24 15.668 23.9861 16.948 23.928C21.302 23.728 23.73 21.3101 23.927 16.948C23.9861 15.668 24 15.259 24 12C24 8.74097 23.9861 8.33301 23.928 7.05298C23.7319 2.69897 21.311 0.272949 16.949 0.072998C15.668 0.013916 15.259 0 12 0L12 0ZM12 5.83789C8.59692 5.83789 5.83789 8.59692 5.83789 12C5.83789 15.4031 8.59692 18.1631 12 18.1631C15.4031 18.1631 18.1621 15.4041 18.1621 12C18.1621 8.59692 15.4031 5.83789 12 5.83789ZM12 16C9.79102 16 8 14.21 8 12C8 9.79102 9.79102 8 12 8C14.209 8 16 9.79102 16 12C16 14.21 14.209 16 12 16ZM18.406 4.15503C17.6101 4.15503 16.9651 4.80005 16.9651 5.59497C16.9651 6.38989 17.6101 7.03491 18.406 7.03491C19.2009 7.03491 19.845 6.38989 19.845 5.59497C19.845 4.80005 19.2009 4.15503 18.406 4.15503Z" fill="#000000" fill-opacity="1.000000" fill-rule="nonzero"/>
	</g>
</svg>
