<svg width="24.000000" height="23.295898" viewBox="0 0 24 23.2959" fill="none" xmlns="http://www.w3.org/2000/svg" xmlns:xlink="http://www.w3.org/1999/xlink">
	<desc>
			Created with Pixso.
	</desc>
	<defs/>
	<path id="Vector" d="M12.042 23.2959C4.229 23.2959 0 18.4199 0 12.125C0 5.39795 4.76196 0 13.2759 0C19.49 0 24 4.03809 24 9.60107C24 18.313 13.6699 20.613 14.188 15.6431C13.478 16.751 12.334 17.9971 10.135 17.9971C7.6189 17.9971 6.05493 16.155 6.05493 13.1899C6.05493 8.74609 8.97607 4.99097 12.4341 4.99097C14.093 4.99097 15.2339 5.86694 15.7109 7.21191L16.175 5.58008L18.5129 5.58008C18.269 6.41211 16.1919 14.1069 16.1919 14.1069C15.5439 16.7729 17.542 16.8201 19.314 15.4041C22.6431 12.824 22.8149 6.0769 18.3159 3.26294C13.4951 0.37207 2.521 2.16089 2.521 11.9561C2.521 17.5669 6.47095 21.3369 12.3501 21.3369C15.7859 21.3369 17.8921 20.407 19.645 19.3889L20.822 21.0869C19.1111 22.053 16.3611 23.2959 12.042 23.2959ZM9.698 8.99097C8.98291 10.3311 8.521 12.0669 8.521 13.415C8.521 17.0249 12.043 17.0481 13.7729 13.6541C14.4851 12.26 14.9441 10.4829 14.9441 9.125C14.9441 6.20801 11.449 5.69092 9.698 8.99097Z" fill="#574E56" fill-opacity="1.000000" fill-rule="nonzero"/>
</svg>
