<svg width="16.829102" height="24.000000" viewBox="0 0 16.8291 24" fill="none" xmlns="http://www.w3.org/2000/svg" xmlns:xlink="http://www.w3.org/1999/xlink">
	<desc>
			Created with Pixso.
	</desc>
	<defs/>
	<path id="Vector" d="M2.59009 1.32202L5.43408 0L9.4751 7.88989L6.75122 9.23096C6.21313 10.49 8.91016 15.52 10.0481 15.603C10.1382 15.5449 12.7192 14.2749 12.7192 14.2749L16.8291 22.207C16.8291 22.207 14.0652 23.561 13.9751 23.603C6.11304 27.1941 -5.12793 5.34497 2.59009 1.32202ZM4.51904 2.59595L3.49609 3.1001C-1.79785 5.86206 7.6731 24.2849 13.144 21.7859L14.1152 21.312L11.8442 16.929L10.8181 17.429C7.65503 18.9761 2.55615 9.20996 5.76318 7.49097L6.77026 6.9939L4.51904 2.59595Z" fill="#000000" fill-opacity="1.000000" fill-rule="nonzero"/>
</svg>
