<svg width="24.000000" height="24.000000" viewBox="0 0 24 24" fill="none" xmlns="http://www.w3.org/2000/svg" xmlns:xlink="http://www.w3.org/1999/xlink">
	<desc>
			Created with Pixso.
	</desc>
	<defs/>
	<path id="Vector" d="M12 0C5.37305 0 0 5.37207 0 12C0 17.084 3.16309 21.426 7.62695 23.1741C7.52197 22.2251 7.427 20.769 7.66895 19.7329C7.88696 18.7959 9.07593 13.7681 9.07593 13.7681C9.07593 13.7681 8.71704 13.0491 8.71704 11.9861C8.71704 10.3181 9.68408 9.07202 10.8879 9.07202C11.9109 9.07202 12.406 9.84106 12.406 10.762C12.406 11.791 11.751 13.3301 11.4121 14.7571C11.1289 15.9509 12.011 16.926 13.189 16.926C15.322 16.926 16.9609 14.677 16.9609 11.4309C16.9609 8.55811 14.897 6.54907 11.949 6.54907C8.53491 6.54907 6.53101 9.11011 6.53101 11.7561C6.53101 12.7871 6.92798 13.894 7.42407 14.4939C7.52197 14.613 7.53589 14.718 7.50708 14.8391L7.17407 16.199C7.12109 16.4189 7 16.4661 6.77197 16.3601C5.27295 15.6621 4.33594 13.4709 4.33594 11.7109C4.33594 7.92603 7.08594 4.44897 12.2649 4.44897C16.428 4.44897 19.6631 7.41602 19.6631 11.3799C19.6631 15.5161 17.0559 18.844 13.436 18.844C12.22 18.844 11.0769 18.2129 10.686 17.4661L9.93799 20.3191C9.66699 21.3621 8.93604 22.6689 8.44604 23.4651C9.57007 23.812 10.7629 24 12 24C18.627 24 24 18.627 24 12C24 5.37207 18.627 0 12 0L12 0Z" fill="#000000" fill-opacity="1.000000" fill-rule="evenodd"/>
</svg>
